<svg viewBox="0 0 20 21" fill="none" xmlns="http://www.w3.org/2000/svg">
<path d="M11.9264 9.125L11.78 8.97849L9.46358 6.66131L9.46344 6.66117C9.45183 6.64955 9.43804 6.64033 9.42287 6.63404C9.40769 6.62775 9.39143 6.62451 9.375 6.62451C9.35857 6.62451 9.34231 6.62775 9.32713 6.63404C9.31196 6.64033 9.29817 6.64955 9.28656 6.66117L9.28637 6.66137L6.78637 9.16137L6.78617 9.16157C6.77455 9.17317 6.76533 9.18696 6.75904 9.20213C6.75275 9.21731 6.74951 9.23357 6.74951 9.25C6.74951 9.26643 6.75275 9.28269 6.75904 9.29787C6.76533 9.31305 6.77455 9.32683 6.78617 9.33844L6.78632 9.33859L9.72851 12.28L9.875 12.4264V12.6336V16.125C9.875 16.1582 9.88817 16.1899 9.91161 16.2134C9.93505 16.2368 9.96685 16.25 10 16.25C10.0332 16.25 10.0649 16.2368 10.0884 16.2134C10.1118 16.1899 10.125 16.1582 10.125 16.125V12.375V12.3746C10.125 12.3582 10.1218 12.3419 10.1155 12.3268L11.9264 9.125ZM11.9264 9.125H12.1336M11.9264 9.125H12.1336M12.1336 9.125H15C15.0332 9.125 15.0649 9.13817 15.0884 9.16161C15.1118 9.18505 15.125 9.21685 15.125 9.25C15.125 9.28315 15.1118 9.31495 15.0884 9.33839C15.0649 9.36183 15.0332 9.375 15 9.375H11.875H11.8746C11.8582 9.37501 11.8419 9.37179 11.8268 9.36552C11.8116 9.35925 11.7978 9.35007 11.7862 9.33849C11.7862 9.33847 11.7862 9.33846 11.7862 9.33844L9.72862 7.28011L9.37507 6.92642L9.02145 7.28004L7.40504 8.89645L7.05144 9.25005M12.1336 9.125L7.05144 9.25005M10.5776 12.1357C10.609 12.2116 10.6251 12.2929 10.625 12.375V16.125C10.625 16.2908 10.5592 16.4497 10.4419 16.5669C10.3247 16.6842 10.1658 16.75 10 16.75C9.83424 16.75 9.67527 16.6842 9.55806 16.5669C9.44085 16.4497 9.375 16.2908 9.375 16.125V12.6336L10.4422 11.9328C10.5002 11.9909 10.5462 12.0598 10.5776 12.1357ZM10.5776 12.1357L10.1155 12.3267M10.5776 12.1357L10.1155 12.3267M10.1155 12.3267C10.1093 12.3116 10.1001 12.2978 10.0885 12.2862M10.1155 12.3267L10.0885 12.2862M7.05144 9.25005L7.40509 9.60361M7.05144 9.25005L7.40509 9.60361M7.40509 9.60361L10.0884 12.2862C10.0885 12.2862 10.0885 12.2862 10.0885 12.2862M7.40509 9.60361L10.0885 12.2862M2.69562 12.5706L3.04918 12.9242L2.69562 12.5706C2.36347 12.9028 2.13728 13.326 2.04564 13.7867C1.954 14.2474 2.00103 14.7249 2.18079 15.1589C2.36055 15.5928 2.66496 15.9638 3.05552 16.2247L3.33331 15.809L3.05552 16.2247C3.44609 16.4857 3.90527 16.625 4.375 16.625C5.00489 16.625 5.60898 16.3748 6.05438 15.9294C6.49978 15.484 6.75 14.8799 6.75 14.25C6.75 13.7803 6.61071 13.3211 6.34974 12.9305C6.08877 12.54 5.71785 12.2355 5.28387 12.0558C4.8499 11.876 4.37237 11.829 3.91166 11.9206C3.45096 12.0123 3.02777 12.2385 2.69562 12.5706ZM11.125 4.5625C11.125 4.22875 11.224 3.90248 11.4094 3.62498C11.5948 3.34747 11.8584 3.13118 12.1667 3.00345L11.9777 2.54713L12.1667 3.00345C12.4751 2.87573 12.8144 2.84231 13.1417 2.90743C13.4691 2.97254 13.7697 3.13326 14.0057 3.36926C14.2417 3.60526 14.4025 3.90594 14.4676 4.23329C14.5327 4.56063 14.4993 4.89993 14.3715 5.20828C14.2438 5.51663 14.0275 5.78018 13.75 5.96561C13.4725 6.15103 13.1463 6.25 12.8125 6.25C12.3649 6.25 11.9357 6.07221 11.6193 5.75574C11.3028 5.43928 11.125 5.01005 11.125 4.5625ZM18.25 14.25C18.25 14.7692 18.096 15.2767 17.8076 15.7084C17.5192 16.1401 17.1092 16.4765 16.6295 16.6752C16.1499 16.8739 15.6221 16.9258 15.1129 16.8246C14.6037 16.7233 14.136 16.4733 13.7688 16.1062C13.4017 15.739 13.1517 15.2713 13.0504 14.7621C12.9492 14.2529 13.0011 13.7251 13.1998 13.2455C13.3985 12.7658 13.735 12.3558 14.1666 12.0674C14.5983 11.779 15.1058 11.625 15.625 11.625C16.3212 11.625 16.9889 11.9016 17.4812 12.3938C17.9734 12.8861 18.25 13.5538 18.25 14.25ZM18 14.25C18 13.7803 17.8607 13.3211 17.5997 12.9305C17.3388 12.54 16.9678 12.2355 16.5339 12.0558C16.0999 11.876 15.6224 11.829 15.1617 11.9206C14.701 12.0123 14.2778 12.2385 13.9456 12.5706C13.6135 12.9028 13.3873 13.326 13.2956 13.7867C13.204 14.2474 13.251 14.7249 13.4308 15.1589C13.6105 15.5928 13.915 15.9638 14.3055 16.2247C14.6961 16.4857 15.1553 16.625 15.625 16.625C16.2549 16.625 16.859 16.3748 17.3044 15.9294C17.7498 15.484 18 14.8799 18 14.25ZM7 14.25C7 14.7692 6.84605 15.2767 6.55761 15.7084C6.26917 16.1401 5.8592 16.4765 5.37955 16.6752C4.89989 16.8739 4.37209 16.9258 3.86289 16.8246C3.35369 16.7233 2.88596 16.4733 2.51885 16.1062C2.15173 15.739 1.90173 15.2713 1.80044 14.7621C1.69915 14.2529 1.75114 13.7251 1.94982 13.2455C2.1485 12.7658 2.48495 12.3558 2.91663 12.0674C3.34831 11.779 3.85583 11.625 4.375 11.625C4.71972 11.625 5.06107 11.6929 5.37955 11.8248C5.69802 11.9567 5.9874 12.1501 6.23116 12.3938C6.47491 12.6376 6.66827 12.927 6.80019 13.2455C6.9321 13.5639 7 13.9053 7 14.25Z" stroke="currentColor"/>
</svg>
