<svg xmlns="http://www.w3.org/2000/svg" viewBox="0 0 24 24" fill="none">
  <path d="M22.1175 18.6562C22.0314 18.7048 21.9365 18.7358 21.8384 18.7476C21.7402 18.7594 21.6407 18.7516 21.5456 18.7248C21.4504 18.6979 21.3616 18.6525 21.284 18.5912C21.2065 18.5299 21.1418 18.4539 21.0938 18.3675L14.5613 6.75H12.75V7.5C12.75 7.69891 12.671 7.88968 12.5303 8.03033C12.3897 8.17098 12.1989 8.25 12 8.25C11.8011 8.25 11.6103 8.17098 11.4697 8.03033C11.329 7.88968 11.25 7.69891 11.25 7.5V6.75H9.43876L2.90626 18.3675C2.80879 18.5415 2.64618 18.6697 2.45419 18.7239C2.2622 18.7781 2.05656 18.7537 1.88251 18.6562C1.70846 18.5588 1.58026 18.3962 1.52611 18.2042C1.47196 18.0122 1.49629 17.8065 1.59376 17.6325L7.71751 6.75H2.25001C2.0511 6.75 1.86033 6.67098 1.71968 6.53033C1.57903 6.38968 1.50001 6.19891 1.50001 6C1.50001 5.80109 1.57903 5.61032 1.71968 5.46967C1.86033 5.32902 2.0511 5.25 2.25001 5.25H21.75C21.9489 5.25 22.1397 5.32902 22.2803 5.46967C22.421 5.61032 22.5 5.80109 22.5 6C22.5 6.19891 22.421 6.38968 22.2803 6.53033C22.1397 6.67098 21.9489 6.75 21.75 6.75H16.2825L22.4063 17.6325C22.4548 17.7186 22.4858 17.8135 22.4976 17.9116C22.5094 18.0098 22.5016 18.1093 22.4748 18.2044C22.4479 18.2996 22.4026 18.3885 22.3412 18.466C22.2799 18.5435 22.2039 18.6082 22.1175 18.6562ZM12 10.5C11.8011 10.5 11.6103 10.579 11.4697 10.7197C11.329 10.8603 11.25 11.0511 11.25 11.25V12.75C11.25 12.9489 11.329 13.1397 11.4697 13.2803C11.6103 13.421 11.8011 13.5 12 13.5C12.1989 13.5 12.3897 13.421 12.5303 13.2803C12.671 13.1397 12.75 12.9489 12.75 12.75V11.25C12.75 11.0511 12.671 10.8603 12.5303 10.7197C12.3897 10.579 12.1989 10.5 12 10.5ZM12 15.75C11.8011 15.75 11.6103 15.829 11.4697 15.9697C11.329 16.1103 11.25 16.3011 11.25 16.5V18C11.25 18.1989 11.329 18.3897 11.4697 18.5303C11.6103 18.671 11.8011 18.75 12 18.75C12.1989 18.75 12.3897 18.671 12.5303 18.5303C12.671 18.3897 12.75 18.1989 12.75 18V16.5C12.75 16.3011 12.671 16.1103 12.5303 15.9697C12.3897 15.829 12.1989 15.75 12 15.75Z" fill="currentColor"/>
</svg>
